<svg width="136" height="133" viewBox="0 0 136 133" fill="none" xmlns="http://www.w3.org/2000/svg">
<path d="M12.5 5V31M36.5 5V31" stroke="black" stroke-width="10" stroke-linecap="round"/>
<path d="M5 31H25.5H45V43C45 58.6 31.6667 62.5 25 62.5C18.3333 62.6667 5 59 5 43V31Z" stroke="black" stroke-width="10" stroke-linecap="round" stroke-linejoin="round"/>
<path d="M25 64V108.5C25 124.5 37 127.833 43 127.5H111.5C130.5 127.5 130.5 116.833 130.5 113C130.5 107.167 130.5 98.5 110 98.5H83.5C70.7 98.5 64.8333 90.5 63.5 86.5C57.1 76.1 67.1667 63.5 73 58.5L99 32" stroke="black" stroke-width="10" stroke-linecap="round" stroke-linejoin="round"/>
<path d="M72 33.9052V58H95.935C103.29 58 118 53.181 118 33.9052V15H95.935C87.9566 15.2471 72 19.3741 72 33.9052Z" stroke="black" stroke-width="10" stroke-linecap="round" stroke-linejoin="round"/>
</svg>
