<svg xmlns="http://www.w3.org/2000/svg" data-name="Layer 1" viewBox="0 0 96 120" x="0px" y="0px"><path d="M69.09,50.28a9.29,9.29,0,0,0,0-18.57H54.9V25.18A15.59,15.59,0,0,0,39.33,9.61H25.11A15.58,15.58,0,0,0,9.54,25.18V70.82A15.58,15.58,0,0,0,25.11,86.39H39.33A15.59,15.59,0,0,0,54.9,70.82V50.28ZM73.37,41a4.28,4.28,0,0,1-4.28,4.28h-36a4.29,4.29,0,0,1,0-8.57h36A4.29,4.29,0,0,1,73.37,41ZM49.9,70.82A10.58,10.58,0,0,1,39.33,81.39H25.11A10.58,10.58,0,0,1,14.54,70.82V25.18A10.58,10.58,0,0,1,25.11,14.61H39.33A10.58,10.58,0,0,1,49.9,25.18v6.53H33.13a9.29,9.29,0,0,0,0,18.57H49.9Z"/><path d="M27.37,60.17a4.82,4.82,0,0,0,2.35,4.14v7.41a2.5,2.5,0,0,0,5,0V64.31a4.84,4.84,0,1,0-7.35-4.14Z"/><circle cx="61.75" cy="69.42" r="3.48"/><path d="M76,56.24a2.51,2.51,0,1,0-3.12,3.92,11.63,11.63,0,0,1,4.42,9.16,11.76,11.76,0,0,1-4.64,9.33,2.5,2.5,0,1,0,3,4A16.71,16.71,0,0,0,76,56.24Z"/><path d="M70.34,61.93a2.5,2.5,0,1,0-3.11,3.91,4.43,4.43,0,0,1-.09,7,2.5,2.5,0,1,0,3,4,9.43,9.43,0,0,0,.18-14.92Z"/><text x="0" y="111" fill="#000000" font-size="5px" font-weight="bold" font-family="'Helvetica Neue', Helvetica, Arial-Unicode, Arial, Sans-serif">Created by yusuf sopian</text><text x="0" y="116" fill="#000000" font-size="5px" font-weight="bold" font-family="'Helvetica Neue', Helvetica, Arial-Unicode, Arial, Sans-serif">from the Noun Project</text></svg>